<svg version="1.1" id="Layer_1" xmlns="http://www.w3.org/2000/svg" xmlns:xlink="http://www.w3.org/1999/xlink" x="0px" y="0px"
	 width="100%" viewBox="0 0 512 512" enable-background="new 0 0 512 512" xml:space="preserve">
<path fill="#FECF1B" opacity="1.000000" stroke="none" 
	d="
M0.999999,348.000000 
	C1.000000,319.312439 1.000000,290.624878 1.338059,261.407410 
	C3.102122,259.766937 4.665609,258.793976 5.934406,257.526123 
	C66.512520,196.993301 127.069786,136.439606 187.590637,75.849548 
	C188.950378,74.488266 189.863586,72.680946 191.454498,71.052979 
	C202.628204,70.978920 213.332520,70.933563 224.503571,70.915558 
	C237.958084,70.952248 250.946045,70.998322 263.933380,70.927177 
	C265.671112,70.917648 267.405609,70.315361 269.601379,69.992874 
	C279.373444,70.054268 288.685730,70.110374 298.074280,70.492348 
	C301.553772,73.947159 300.389587,76.242775 297.414612,79.212288 
	C211.790710,164.678864 126.213829,250.192841 40.825581,335.894653 
	C35.420021,341.320099 29.398832,344.432129 22.248724,345.609253 
	C15.224996,346.765625 8.087545,347.231262 0.999999,348.000000 
z"/>
<path fill="#000000" opacity="1.000000" stroke="none" 
	d="
M206.000000,513.000000 
	C137.751923,513.000000 69.503853,513.000000 1.000000,513.000000 
	C1.000000,464.646088 1.000000,416.291687 1.284752,367.138794 
	C3.364540,369.596924 5.159577,372.853577 6.978845,376.463989 
	C9.321368,379.583679 11.639662,382.349579 14.088251,385.425964 
	C16.796173,387.527527 19.373800,389.318604 22.116428,391.429047 
	C27.779726,393.499146 33.262299,396.705383 38.778877,396.764984 
	C75.163048,397.158173 111.554543,396.874207 148.402008,396.889709 
	C152.571396,396.923309 156.282410,396.878204 160.457458,396.906311 
	C170.279938,396.930664 179.638397,396.881775 189.360001,397.085449 
	C189.870926,404.223694 190.018692,411.109375 190.095215,418.459106 
	C190.071381,425.947235 190.118790,432.971252 190.095673,440.459595 
	C190.072098,448.947479 190.119049,456.971069 190.095566,465.458984 
	C190.016876,470.418640 189.890671,474.917725 190.033310,479.408295 
	C190.177765,483.956543 190.588104,488.496368 190.927261,493.432281 
	C192.567886,502.033264 197.125549,507.799194 205.339905,511.028809 
	C205.788620,511.816498 205.894318,512.408264 206.000000,513.000000 
z"/>
<path fill="#000000" opacity="1.000000" stroke="none" 
	d="
M513.000000,367.000000 
	C513.000000,415.604889 513.000000,464.209808 513.000000,513.000000 
	C446.979218,513.000000 380.958282,513.000000 314.265625,512.659058 
	C320.675812,508.556488 327.001068,503.734863 328.760681,495.574402 
	C329.983734,489.902283 329.535034,483.869690 329.897644,477.533813 
	C329.919220,470.712158 329.876312,464.354889 329.897858,457.533081 
	C329.919403,449.711273 329.876526,442.353973 329.898193,434.532227 
	C329.919250,426.710358 329.875793,419.352966 329.897522,411.532776 
	C329.962677,406.492493 329.962677,401.915039 329.962677,396.832977 
	C335.438690,396.832977 340.217499,396.832977 345.460693,396.901245 
	C352.325897,396.922028 358.726746,396.874512 365.585449,396.881104 
	C400.798706,396.957031 435.554352,396.909882 470.309265,397.051331 
	C478.529541,397.084778 486.053223,395.193604 493.331421,390.831726 
	C498.483093,385.560425 503.294739,380.305237 508.433960,374.869232 
	C510.174377,372.125580 511.587189,369.562805 513.000000,367.000000 
z"/>
<path fill="#FECB14" opacity="1.000000" stroke="none" 
	d="
M0.999999,348.428467 
	C8.087545,347.231262 15.224996,346.765625 22.248724,345.609253 
	C29.398832,344.432129 35.420021,341.320099 40.825581,335.894653 
	C126.213829,250.192841 211.790710,164.678864 297.414612,79.212288 
	C300.389587,76.242775 301.553772,73.947159 298.537842,70.417816 
	C324.949615,70.066811 350.974091,70.116196 376.980438,70.519615 
	C374.919952,73.137726 372.972656,75.496788 370.820831,77.651543 
	C340.163605,108.350716 309.455963,138.999634 278.870544,169.770035 
	C277.406891,171.242554 276.963531,173.729279 275.718933,175.629242 
	C269.568359,172.741653 263.902985,169.427261 256.614685,170.093002 
	C244.553879,169.872437 235.784470,174.918198 229.677795,184.663773 
	C218.938232,201.802994 208.279434,218.992767 197.565582,236.148117 
	C184.796082,256.595001 172.049530,277.056458 159.207504,297.457794 
	C149.205200,313.347839 139.072021,329.155518 128.589859,344.977417 
	C125.890800,344.695526 123.562744,344.036774 121.312729,344.240448 
	C104.833038,345.731873 88.374496,347.455597 71.897820,348.982361 
	C62.825253,349.823090 53.734909,350.487793 44.644733,351.118866 
	C30.099918,352.128632 15.548580,353.044464 1.000000,354.000000 
	C1.000000,352.285645 1.000000,350.571289 0.999999,348.428467 
z"/>
<path fill="#FFD525" opacity="1.000000" stroke="none" 
	d="
M190.985092,71.081688 
	C189.863586,72.680946 188.950378,74.488266 187.590637,75.849548 
	C127.069786,136.439606 66.512520,196.993301 5.934406,257.526123 
	C4.665609,258.793976 3.102122,259.766937 1.338059,260.938751 
	C1.000000,225.312439 1.000000,189.624878 1.348072,153.410675 
	C3.722204,151.497849 6.025559,150.389572 7.733890,148.684967 
	C54.121746,102.398514 100.465622,56.067879 146.732742,9.660776 
	C148.890701,7.496286 150.272141,4.557608 152.404724,1.983083 
	C164.546341,4.402831 171.432266,11.974159 175.107239,23.406710 
	C175.467728,27.210316 175.777466,30.608145 176.069733,34.472160 
	C176.066833,39.965973 176.081406,44.993599 176.076843,50.476875 
	C176.043686,52.427170 176.012741,53.921871 176.018402,55.416435 
	C176.058060,65.882401 180.627258,70.661469 190.985092,71.081688 
z"/>
<path fill="#FDBF01" opacity="1.000000" stroke="none" 
	d="
M513.000000,137.000000 
	C513.000000,209.687561 513.000000,282.375122 512.531372,355.531342 
	C496.117859,355.999847 480.172974,355.973053 464.228241,356.014008 
	C458.643127,356.028351 453.835785,354.262970 449.827484,350.332581 
	C433.474884,334.297729 417.114594,318.270660 400.741089,302.257172 
	C399.560791,301.102844 398.251678,300.080200 396.834961,298.709595 
	C390.018646,291.984924 383.325775,285.591400 376.754883,279.074921 
	C375.281494,277.613739 374.235107,275.721954 373.211975,273.780579 
	C375.279510,271.863495 377.204498,270.271576 378.963623,268.513672 
	C421.208099,226.298355 463.417572,184.047943 505.717743,141.888580 
	C507.750275,139.862839 510.554932,138.611816 513.000000,137.000000 
z"/>
<path fill="#000000" opacity="1.000000" stroke="none" 
	d="
M376.998535,70.165573 
	C350.974091,70.116196 324.949615,70.066811 298.461609,70.091949 
	C288.685730,70.110374 279.373444,70.054268 269.540497,69.544945 
	C268.957489,66.393166 268.895111,63.694595 268.900757,60.550209 
	C268.923462,57.401421 268.878204,54.698460 268.900909,51.549736 
	C268.923889,48.401634 268.878906,45.699291 268.902222,42.563278 
	C268.924744,40.084915 268.878998,38.040226 268.902649,35.550209 
	C268.927277,32.404381 268.882507,29.703882 268.905273,26.616318 
	C268.332886,24.119204 267.692902,22.009153 267.021729,19.537464 
	C263.989746,12.117014 259.359558,6.642571 252.153076,3.527533 
	C251.241531,3.133508 250.708435,1.863934 250.000000,1.000003 
	C337.560608,1.000000 425.121216,1.000000 513.000000,1.000000 
	C513.000000,33.686874 513.000000,66.374779 512.724548,99.862930 
	C509.979431,96.400612 507.509735,92.138039 504.906281,87.564728 
	C500.197998,83.466423 495.623474,79.678848 490.881531,75.567978 
	C483.578491,71.601837 475.899323,70.390144 467.535645,70.093887 
	C455.380829,70.069023 443.689606,70.116905 431.534851,70.091949 
	C413.047089,70.067940 395.022797,70.116753 376.998535,70.165573 
z"/>
<path fill="#FFD92C" opacity="1.000000" stroke="none" 
	d="
M152.015228,1.979493 
	C150.272141,4.557608 148.890701,7.496286 146.732742,9.660776 
	C100.465622,56.067879 54.121746,102.398514 7.733890,148.684967 
	C6.025559,150.389572 3.722204,151.497849 1.348072,152.942017 
	C1.000000,108.979103 1.000000,64.958206 1.266531,20.797443 
	C1.993429,20.210541 2.667577,19.847763 2.881957,19.303787 
	C5.888894,11.673870 11.164125,6.303701 18.673674,3.030156 
	C19.293074,2.760148 19.566059,1.695454 20.000000,1.000000 
	C62.354229,1.000000 104.708458,1.000000 147.609131,1.292538 
	C149.443832,1.717975 150.732101,1.850874 152.015015,1.990650 
	C152.009644,1.997527 152.015228,1.979494 152.015228,1.979493 
z"/>
<path fill="#FDC306" opacity="1.000000" stroke="none" 
	d="
M505.040039,87.875465 
	C507.509735,92.138039 509.979431,96.400612 512.724548,100.331589 
	C513.000000,112.020897 513.000000,124.041786 513.000000,136.531342 
	C510.554932,138.611816 507.750275,139.862839 505.717743,141.888580 
	C463.417572,184.047943 421.208099,226.298355 378.963623,268.513672 
	C377.204498,270.271576 375.279510,271.863495 372.875610,273.711304 
	C368.883606,270.923676 365.447754,267.957489 361.843018,264.705292 
	C354.115082,256.619476 346.556030,248.819687 339.217041,240.773041 
	C341.287201,238.854950 343.214539,237.261002 344.976044,235.501099 
	C379.147858,201.360123 413.287109,167.186554 447.490906,133.077698 
	C449.459045,131.115021 451.920502,129.647095 454.445679,128.069763 
	C455.493530,128.390854 456.248108,128.591125 457.309448,128.990295 
	C458.747131,129.404282 459.878113,129.619370 461.432678,129.905258 
	C463.571930,129.928940 465.287537,129.881836 467.407349,129.904739 
	C469.373077,129.689316 471.046631,129.671829 472.477264,129.073456 
	C479.869965,125.981445 481.472260,122.607338 480.955750,111.749008 
	C481.106049,111.333939 481.165436,111.167633 481.572540,110.982788 
	C483.408783,110.014053 485.106079,109.279610 486.349579,108.076248 
	C491.690918,102.907326 496.948303,97.648422 502.118713,92.308456 
	C503.328308,91.059151 504.078461,89.364967 505.040039,87.875465 
z"/>
<path fill="#68AF67" opacity="1.000000" stroke="none" 
	d="
M344.996338,396.832977 
	C340.217499,396.832977 335.438690,396.832977 329.962677,396.832977 
	C329.962677,401.915039 329.962677,406.492493 329.546692,411.551605 
	C327.629822,412.979797 325.888977,413.685730 324.663086,414.908051 
	C293.731323,445.750397 262.837219,476.630646 232.019638,507.586945 
	C230.616440,508.996429 229.988831,511.178009 229.000000,513.000000 
	C221.645752,513.000000 214.291504,513.000000 206.468628,513.000000 
	C205.894318,512.408264 205.788620,511.816498 205.410263,510.702942 
	C206.509628,508.536133 207.762894,506.772400 209.270889,505.263275 
	C263.998962,450.494263 318.754852,395.753052 373.480743,340.981842 
	C375.228058,339.233093 376.700775,337.209930 378.534943,335.601318 
	C382.108429,341.595978 385.448547,347.304047 388.466492,353.082214 
	C387.450500,353.588593 386.645569,353.913208 386.079254,354.477386 
	C373.039398,367.468292 360.012512,380.472382 347.035431,393.525909 
	C346.146393,394.420166 345.666504,395.721130 344.996338,396.832977 
z"/>
<path fill="#FEB300" opacity="1.000000" stroke="none" 
	d="
M397.002441,298.996338 
	C398.251678,300.080200 399.560791,301.102844 400.741089,302.257172 
	C417.114594,318.270660 433.474884,334.297729 449.827484,350.332581 
	C453.835785,354.262970 458.643127,356.028351 464.228241,356.014008 
	C480.172974,355.973053 496.117859,355.999847 512.531372,356.000000 
	C513.000000,359.361298 513.000000,362.722565 513.000000,366.541931 
	C511.587189,369.562805 510.174377,372.125580 508.079926,374.700623 
	C501.182220,374.141937 494.954651,373.006714 488.752777,373.132904 
	C479.562012,373.319977 470.896515,372.803040 463.428833,366.450409 
	C461.683746,364.965881 458.784973,364.844727 456.423462,364.076477 
	C442.459503,359.533722 427.505737,358.019714 414.618713,350.135132 
	C411.258606,348.079407 407.552429,346.054871 403.761169,345.373016 
	C398.970612,344.511414 397.980255,342.120605 397.932465,337.851562 
	C397.787537,324.897980 397.335114,311.947815 397.002441,298.996338 
z"/>
<path fill="#61AB6B" opacity="1.000000" stroke="none" 
	d="
M229.468628,513.000000 
	C229.988831,511.178009 230.616440,508.996429 232.019638,507.586945 
	C262.837219,476.630646 293.731323,445.750397 324.663086,414.908051 
	C325.888977,413.685730 327.629822,412.979797 329.481537,412.014404 
	C329.875793,419.352966 329.919250,426.710358 329.572327,434.602539 
	C328.125031,435.921417 326.949890,436.586975 326.028473,437.506744 
	C302.208038,461.283447 278.403778,485.076447 254.647293,508.917023 
	C253.527161,510.041138 252.871811,511.628418 252.000000,513.000000 
	C244.645752,513.000000 237.291504,513.000000 229.468628,513.000000 
z"/>
<path fill="#5AA670" opacity="1.000000" stroke="none" 
	d="
M252.468628,513.000000 
	C252.871811,511.628418 253.527161,510.041138 254.647293,508.917023 
	C278.403778,485.076447 302.208038,461.283447 326.028473,437.506744 
	C326.949890,436.586975 328.125031,435.921417 329.507812,435.067017 
	C329.876526,442.353973 329.919403,449.711273 329.572021,457.603302 
	C328.362335,458.687531 327.426208,459.120026 326.740570,459.803741 
	C310.231354,476.266663 293.735809,492.743408 277.293793,509.273346 
	C276.292450,510.280060 275.753906,511.747131 275.000000,513.000000 
	C267.645752,513.000000 260.291504,513.000000 252.468628,513.000000 
z"/>
<path fill="#FEBC0F" opacity="1.000000" stroke="none" 
	d="
M6.954617,376.110229 
	C5.159577,372.853577 3.364540,369.596924 1.284752,366.670135 
	C1.000000,366.555542 1.000000,366.111115 1.417981,365.308990 
	C6.766335,364.300995 11.678969,363.397858 16.630596,363.050446 
	C28.710318,362.202789 40.808350,361.616882 52.898502,360.916901 
	C59.193890,360.552460 65.492165,360.225891 71.782265,359.784332 
	C88.982536,358.576843 106.179161,357.317505 123.306808,356.497467 
	C123.172905,358.612213 123.109413,360.308167 123.003197,362.420654 
	C122.864815,364.228485 122.769165,365.619781 122.249855,367.008911 
	C114.380379,367.338623 106.928017,367.565308 99.490364,368.028168 
	C89.418327,368.655029 79.355026,369.430023 69.292625,370.202057 
	C57.582783,371.100494 45.884232,372.154785 34.168705,372.967316 
	C26.734190,373.482910 19.269728,373.570953 11.837114,374.106384 
	C10.170149,374.226471 8.580087,375.414062 6.954617,376.110229 
z"/>
<path fill="#FEC412" opacity="1.000000" stroke="none" 
	d="
M123.377243,356.078674 
	C106.179161,357.317505 88.982536,358.576843 71.782265,359.784332 
	C65.492165,360.225891 59.193890,360.552460 52.898502,360.916901 
	C40.808350,361.616882 28.710318,362.202789 16.630596,363.050446 
	C11.678969,363.397858 6.766335,364.300995 1.417981,364.975647 
	C1.000000,361.638702 1.000000,358.277435 1.000000,354.458069 
	C15.548580,353.044464 30.099918,352.128632 44.644733,351.118866 
	C53.734909,350.487793 62.825253,349.823090 71.897820,348.982361 
	C88.374496,347.455597 104.833038,345.731873 121.312729,344.240448 
	C123.562744,344.036774 125.890800,344.695526 128.464233,345.300385 
	C126.956261,349.123413 125.166756,352.601044 123.377243,356.078674 
z"/>
<path fill="#FDBF00" opacity="1.000000" stroke="none" 
	d="
M175.056458,23.000931 
	C171.432266,11.974159 164.546341,4.402831 152.404724,1.983085 
	C152.015228,1.979494 152.009644,1.997527 152.008453,1.744832 
	C152.007248,1.492136 152.000000,1.000000 152.000000,1.000000 
	C167.354233,1.000000 182.708450,1.000000 198.792480,1.236416 
	C210.168350,4.862110 218.568100,10.711416 221.532898,21.999512 
	C210.648788,21.999823 200.232040,21.896763 189.818878,22.045271 
	C184.894531,22.115498 179.977051,22.667313 175.056458,23.000931 
z"/>
<path fill="#FF9001" opacity="1.000000" stroke="none" 
	d="
M222.001755,21.999329 
	C218.568100,10.711416 210.168350,4.862110 199.261139,1.236416 
	C215.687561,1.000000 232.375122,1.000000 249.531342,1.000003 
	C250.708435,1.863934 251.241531,3.133508 252.153076,3.527533 
	C259.359558,6.642571 263.989746,12.117014 266.735840,19.799038 
	C263.919342,20.947666 261.363403,21.891272 258.794769,21.927048 
	C246.845139,22.093485 234.891998,22.008692 222.705490,22.012390 
	C222.470871,22.010996 222.001755,21.999329 222.001755,21.999329 
z"/>
<path fill="#53A274" opacity="1.000000" stroke="none" 
	d="
M275.468384,513.000000 
	C275.753906,511.747131 276.292450,510.280060 277.293793,509.273346 
	C293.735809,492.743408 310.231354,476.266663 326.740570,459.803741 
	C327.426208,459.120026 328.362335,458.687531 329.507629,458.067810 
	C329.876312,464.354889 329.919220,470.712158 329.571869,477.603851 
	C328.486420,478.569275 327.677826,478.886322 327.112885,479.448303 
	C317.022308,489.486267 306.942657,499.535492 296.926483,509.647491 
	C296.049744,510.532654 295.631317,511.871735 295.000000,513.000000 
	C288.645599,513.000000 282.291199,513.000000 275.468384,513.000000 
z"/>
<path fill="#4D9F77" opacity="1.000000" stroke="none" 
	d="
M295.468262,513.000000 
	C295.631317,511.871735 296.049744,510.532654 296.926483,509.647491 
	C306.942657,499.535492 317.022308,489.486267 327.112885,479.448303 
	C327.677826,478.886322 328.486420,478.569275 329.507385,478.068176 
	C329.535034,483.869690 329.983734,489.902283 328.760681,495.574402 
	C327.001068,503.734863 320.675812,508.556488 313.796936,512.659058 
	C307.978851,513.000000 301.957703,513.000000 295.468262,513.000000 
z"/>
<path fill="#000000" opacity="1.000000" stroke="none" 
	d="
M19.530624,1.000000 
	C19.566059,1.695454 19.293074,2.760148 18.673674,3.030156 
	C11.164125,6.303701 5.888894,11.673870 2.881957,19.303787 
	C2.667577,19.847763 1.993429,20.210541 1.266531,20.328785 
	C1.000000,13.740766 1.000000,7.481532 1.000000,1.000000 
	C7.018606,1.000000 13.039927,1.000000 19.530624,1.000000 
z"/>
<path fill="#FFD525" opacity="1.000000" stroke="none" 
	d="
M151.600006,1.000000 
	C152.000000,1.000000 152.007248,1.492136 152.013809,1.737955 
	C150.732101,1.850874 149.443832,1.717975 148.077789,1.292538 
	C149.066666,1.000000 150.133347,1.000000 151.600006,1.000000 
z"/>
<path fill="#FEA101" opacity="1.000000" stroke="none" 
	d="
M191.454498,71.052979 
	C180.627258,70.661469 176.058060,65.882401 176.018402,55.416435 
	C176.012741,53.921871 176.043686,52.427170 176.487183,50.444466 
	C179.880753,49.637703 182.842606,49.069881 185.809265,49.043564 
	C198.470169,48.931255 211.132507,48.978943 223.849716,49.348083 
	C223.962128,50.492340 224.019150,51.256771 224.049881,52.469589 
	C224.037659,55.617126 224.051712,58.316280 224.031952,61.465771 
	C224.011032,64.906807 224.023926,67.897514 224.036835,70.888214 
	C213.332520,70.933563 202.628204,70.978920 191.454498,71.052979 
z"/>
<path fill="#EC503D" opacity="1.000000" stroke="none" 
	d="
M224.503571,70.915558 
	C224.023926,67.897514 224.011032,64.906807 224.494324,61.460869 
	C239.604599,61.002434 254.218674,60.999229 268.832764,60.996029 
	C268.895111,63.694595 268.957489,66.393166 269.080750,69.539658 
	C267.405609,70.315361 265.671112,70.917648 263.933380,70.927177 
	C250.946045,70.998322 237.958084,70.952248 224.503571,70.915558 
z"/>
<path fill="#71B462" opacity="1.000000" stroke="none" 
	d="
M378.301544,335.314697 
	C376.700775,337.209930 375.228058,339.233093 373.480743,340.981842 
	C318.754852,395.753052 263.998962,450.494263 209.270889,505.263275 
	C207.762894,506.772400 206.509628,508.536133 205.067230,510.507019 
	C197.125549,507.799194 192.567886,502.033264 191.273132,493.367554 
	C193.362640,491.460114 195.298691,490.157043 196.919159,488.538147 
	C252.092224,433.416168 307.229553,378.258514 362.411804,323.145782 
	C364.012329,321.547302 366.042389,320.378876 368.049744,319.306763 
	C371.585358,324.840607 374.943451,330.077637 378.301544,335.314697 
z"/>
<path fill="#7AB95D" opacity="1.000000" stroke="none" 
	d="
M367.872192,319.009949 
	C366.042389,320.378876 364.012329,321.547302 362.411804,323.145782 
	C307.229553,378.258514 252.092224,433.416168 196.919159,488.538147 
	C195.298691,490.157043 193.362640,491.460114 191.227859,492.975159 
	C190.588104,488.496368 190.177765,483.956543 190.033310,479.408295 
	C189.890671,474.917725 190.016876,470.418640 190.425903,465.389038 
	C193.325439,462.962128 196.086380,461.332153 198.284485,459.138275 
	C249.632858,407.889343 300.924133,356.583191 352.200256,305.261932 
	C353.710907,303.749969 354.943970,301.960693 356.515930,300.562897 
	C357.398071,301.605743 358.070709,302.386444 358.862579,303.496979 
	C361.945282,308.887878 364.908752,313.948914 367.872192,319.009949 
z"/>
<path fill="#8AC254" opacity="1.000000" stroke="none" 
	d="
M190.166199,439.995300 
	C190.118790,432.971252 190.071381,425.947235 190.421402,418.390625 
	C191.516022,417.426300 192.328491,417.110046 192.893738,416.546021 
	C212.747528,396.734192 232.609390,376.930145 252.380661,357.036102 
	C255.622116,353.774536 257.400513,349.833923 257.077637,344.924988 
	C256.729797,339.636963 256.997986,334.308411 256.997620,328.597931 
	C256.999359,327.132599 257.000916,326.066925 257.379639,324.983704 
	C264.748016,321.679260 273.189392,321.336212 278.387207,314.331848 
	C279.677216,312.593506 282.025391,311.267670 284.154388,310.582581 
	C304.344177,304.085663 321.441315,292.951019 335.503143,277.077423 
	C336.650269,275.782501 338.400665,275.022064 340.093384,274.284241 
	C342.630432,278.340546 344.944794,282.125854 346.949402,286.071564 
	C345.171448,287.576355 343.649963,288.867432 342.242920,290.273071 
	C320.004944,312.488251 297.789856,334.726318 275.538361,356.927979 
	C273.902130,358.560516 272.167450,360.169830 270.238617,361.419617 
	C264.227539,365.314667 258.054779,368.953522 255.663193,376.398865 
	C255.336395,377.416229 254.256073,378.226562 253.437622,379.045837 
	C234.043304,398.459808 214.659363,417.884338 195.182907,437.215668 
	C193.877304,438.511566 191.855118,439.085541 190.166199,439.995300 
z"/>
<path fill="#83BE58" opacity="1.000000" stroke="none" 
	d="
M190.095673,440.459595 
	C191.855118,439.085541 193.877304,438.511566 195.182907,437.215668 
	C214.659363,417.884338 234.043304,398.459808 253.437622,379.045837 
	C254.256073,378.226562 255.336395,377.416229 255.663193,376.398865 
	C258.054779,368.953522 264.227539,365.314667 270.238617,361.419617 
	C272.167450,360.169830 273.902130,358.560516 275.538361,356.927979 
	C297.789856,334.726318 320.004944,312.488251 342.242920,290.273071 
	C343.649963,288.867432 345.171448,287.576355 347.198669,286.283875 
	C350.607239,290.990753 353.456848,295.645752 356.306458,300.300720 
	C354.943970,301.960693 353.710907,303.749969 352.200256,305.261932 
	C300.924133,356.583191 249.632858,407.889343 198.284485,459.138275 
	C196.086380,461.332153 193.325439,462.962128 190.496338,464.924744 
	C190.119049,456.971069 190.072098,448.947479 190.095673,440.459595 
z"/>
<path fill="#A4D145" opacity="1.000000" stroke="none" 
	d="
M159.993423,396.833069 
	C156.282410,396.878204 152.571396,396.923309 148.151520,396.650696 
	C142.606308,393.586761 137.769958,390.840607 133.106903,387.799255 
	C133.702621,386.990692 134.085358,386.437683 134.553131,385.969696 
	C173.989029,346.517975 213.425446,307.066833 252.904022,267.657867 
	C254.029037,266.534821 255.607346,265.865845 256.985596,265.455200 
	C256.993317,277.279480 256.989746,288.633698 256.649261,300.052521 
	C255.007248,301.112335 253.567917,301.973114 252.416656,303.122467 
	C222.617279,332.872192 192.839859,362.643951 163.101410,392.454590 
	C161.854904,393.704071 161.020050,395.364227 159.993423,396.833069 
z"/>
<path fill="#99CB4B" opacity="1.000000" stroke="none" 
	d="
M160.457458,396.906311 
	C161.020050,395.364227 161.854904,393.704071 163.101410,392.454590 
	C192.839859,362.643951 222.617279,332.872192 252.416656,303.122467 
	C253.567917,301.973114 255.007248,301.112335 256.654602,300.522522 
	C256.998749,308.952362 257.000580,316.976776 257.002441,325.001221 
	C257.000916,326.066925 256.999359,327.132599 256.659912,328.659973 
	C255.133804,329.995483 253.810028,330.733398 252.777435,331.763245 
	C232.404434,352.082336 212.054581,372.424713 191.747482,392.809631 
	C190.620255,393.941162 189.904251,395.482361 188.996826,396.832886 
	C179.638397,396.881775 170.279938,396.930664 160.457458,396.906311 
z"/>
<path fill="#91C650" opacity="1.000000" stroke="none" 
	d="
M189.359985,397.085449 
	C189.904251,395.482361 190.620255,393.941162 191.747482,392.809631 
	C212.054581,372.424713 232.404434,352.082336 252.777435,331.763245 
	C253.810028,330.733398 255.133804,329.995483 256.659729,329.059631 
	C256.997986,334.308411 256.729797,339.636963 257.077637,344.924988 
	C257.400513,349.833923 255.622116,353.774536 252.380661,357.036102 
	C232.609390,376.930145 212.747528,396.734192 192.893738,416.546021 
	C192.328491,417.110046 191.516022,417.426300 190.492645,417.926544 
	C190.018692,411.109375 189.870926,404.223694 189.359985,397.085449 
z"/>
<path fill="#FFAA07" opacity="1.000000" stroke="none" 
	d="
M132.933594,388.094452 
	C137.769958,390.840607 142.606308,393.586761 147.693146,396.571960 
	C111.554543,396.874207 75.163048,397.158173 38.778877,396.764984 
	C33.262299,396.705383 27.779726,393.499146 22.321259,391.112762 
	C24.989717,389.656464 27.586805,388.255249 30.252161,388.110413 
	C46.124557,387.247986 62.018608,386.790405 77.893982,385.974823 
	C94.580254,385.117554 111.253723,384.010986 128.182220,383.221863 
	C129.932312,384.985107 131.432953,386.539795 132.933594,388.094452 
z"/>
<path fill="#FEB00A" opacity="1.000000" stroke="none" 
	d="
M127.932785,383.013306 
	C111.253723,384.010986 94.580254,385.117554 77.893982,385.974823 
	C62.018608,386.790405 46.124557,387.247986 30.252161,388.110413 
	C27.586805,388.255249 24.989717,389.656464 22.156258,390.793427 
	C19.373800,389.318604 16.796173,387.527527 14.119835,385.021912 
	C14.401572,380.660065 17.160938,381.084137 19.648335,380.997162 
	C29.775137,380.643158 39.908962,380.415619 50.026108,379.876892 
	C65.925926,379.030151 81.817230,378.013916 97.706505,376.982574 
	C106.473152,376.413513 115.228317,375.667450 124.160828,375.298645 
	C125.532928,378.068512 126.732857,380.540894 127.932785,383.013306 
z"/>
<path fill="#FEB50C" opacity="1.000000" stroke="none" 
	d="
M123.988655,375.001221 
	C115.228317,375.667450 106.473152,376.413513 97.706505,376.982574 
	C81.817230,378.013916 65.925926,379.030151 50.026108,379.876892 
	C39.908962,380.415619 29.775137,380.643158 19.648335,380.997162 
	C17.160938,381.084137 14.401572,380.660065 13.989538,384.711426 
	C11.639662,382.349579 9.321368,379.583679 6.978848,376.463989 
	C8.580087,375.414062 10.170149,374.226471 11.837114,374.106384 
	C19.269728,373.570953 26.734190,373.482910 34.168705,372.967316 
	C45.884232,372.154785 57.582783,371.100494 69.292625,370.202057 
	C79.355026,369.430023 89.418327,368.655029 99.490364,368.028168 
	C106.928017,367.565308 114.380379,367.338623 122.332062,367.412750 
	C123.221519,370.212921 123.605087,372.607086 123.988655,375.001221 
z"/>
<path fill="#FEAC00" opacity="1.000000" stroke="none" 
	d="
M368.049744,319.306763 
	C364.908752,313.948914 361.945282,308.887878 359.138519,303.191956 
	C359.767426,295.978790 361.519775,289.163391 360.357300,282.887909 
	C359.157959,276.413391 360.871185,270.883362 362.011932,264.991302 
	C365.447754,267.957489 368.883606,270.923676 372.655792,273.959137 
	C374.235107,275.721954 375.281494,277.613739 376.754883,279.074921 
	C383.325775,285.591400 390.018646,291.984924 396.834961,298.709595 
	C397.335114,311.947815 397.787537,324.897980 397.932465,337.851562 
	C397.980255,342.120605 398.970612,344.511414 403.761169,345.373016 
	C407.552429,346.054871 411.258606,348.079407 414.618713,350.135132 
	C427.505737,358.019714 442.459503,359.533722 456.423462,364.076477 
	C458.784973,364.844727 461.683746,364.965881 463.428833,366.450409 
	C470.896515,372.803040 479.562012,373.319977 488.752777,373.132904 
	C494.954651,373.006714 501.182220,374.141937 507.752319,374.881470 
	C503.294739,380.305237 498.483093,385.560425 493.309967,390.461182 
	C491.714600,389.021057 490.642426,387.349060 489.217499,386.956024 
	C484.299774,385.599548 479.272675,384.620697 474.261780,383.626007 
	C467.802887,382.343811 461.316223,381.201904 454.847321,379.969269 
	C443.651733,377.835938 432.305176,376.267151 421.312836,373.361084 
	C411.067017,370.652374 401.199921,366.511047 391.112213,362.596039 
	C390.301758,359.131866 389.545197,356.071960 388.788635,353.012085 
	C385.448547,347.304047 382.108429,341.595978 378.534943,335.601318 
	C374.943451,330.077637 371.585358,324.840607 368.049744,319.306763 
z"/>
<path fill="#FEA300" opacity="1.000000" stroke="none" 
	d="
M391.166107,363.000336 
	C401.199921,366.511047 411.067017,370.652374 421.312836,373.361084 
	C432.305176,376.267151 443.651733,377.835938 454.847321,379.969269 
	C461.316223,381.201904 467.802887,382.343811 474.261780,383.626007 
	C479.272675,384.620697 484.299774,385.599548 489.217499,386.956024 
	C490.642426,387.349060 491.714600,389.021057 492.969910,390.477295 
	C486.053223,395.193604 478.529541,397.084778 470.309265,397.051331 
	C435.554352,396.909882 400.798706,396.957031 365.831329,396.628967 
	C370.689880,393.779388 376.369843,391.996490 380.698486,388.527466 
	C388.638367,382.164368 391.315186,373.010254 391.166107,363.000336 
z"/>
<path fill="#61AB6B" opacity="1.000000" stroke="none" 
	d="
M391.112213,362.596039 
	C391.315186,373.010254 388.638367,382.164368 380.698486,388.527466 
	C376.369843,391.996490 370.689880,393.779388 365.373474,396.574890 
	C358.726746,396.874512 352.325897,396.922028 345.460693,396.901245 
	C345.666504,395.721130 346.146393,394.420166 347.035431,393.525909 
	C360.012512,380.472382 373.039398,367.468292 386.079254,354.477386 
	C386.645569,353.913208 387.450500,353.588593 388.466492,353.082214 
	C389.545197,356.071960 390.301758,359.131866 391.112213,362.596039 
z"/>
<path fill="#B9DC39" opacity="1.000000" stroke="none" 
	d="
M123.306824,356.497467 
	C125.166756,352.601044 126.956261,349.123413 128.871368,345.322815 
	C139.072021,329.155518 149.205200,313.347839 159.207504,297.457794 
	C172.049530,277.056458 184.796082,256.595001 197.565582,236.148117 
	C208.279434,218.992767 218.938232,201.802994 229.677795,184.663773 
	C235.784470,174.918198 244.553879,169.872437 256.595367,170.550461 
	C257.036469,181.022430 257.053589,191.002197 257.046753,201.452316 
	C256.997894,211.941910 256.972931,221.961151 256.589508,232.000946 
	C254.365036,233.303391 252.246063,234.331726 250.669952,235.904190 
	C209.929062,276.551483 169.252899,317.263641 128.519958,357.918945 
	C126.925034,359.510864 124.880821,360.652618 123.045937,362.004120 
	C123.109413,360.308167 123.172905,358.612213 123.306824,356.497467 
z"/>
<path fill="#FEC910" opacity="1.000000" stroke="none" 
	d="
M376.980438,70.519615 
	C395.022797,70.116753 413.047089,70.067940 431.424866,70.404099 
	C428.552643,73.325645 425.113037,75.636368 422.146332,78.446404 
	C416.220459,84.059364 410.481995,89.876793 404.816803,95.755013 
	C402.650635,98.002655 400.897095,100.648033 398.658752,102.971008 
	C397.590393,102.184219 396.818787,101.538582 395.903442,100.578857 
	C394.519012,99.814430 393.278290,99.364090 391.786926,98.562836 
	C387.228760,98.142014 382.909698,97.844788 378.616821,98.063087 
	C373.871094,98.304413 369.324799,101.532265 369.075836,106.716934 
	C368.877045,110.856133 368.508179,115.089607 369.153351,119.131416 
	C369.594788,121.896858 371.649170,124.404823 372.988373,127.243385 
	C372.994293,127.458878 373.043030,127.887268 372.826965,128.145203 
	C370.881073,129.961685 369.078156,131.447083 367.432434,133.089905 
	C347.854492,152.633270 328.314026,172.214111 308.727081,191.748367 
	C304.955933,195.509323 301.807251,200.827240 294.649170,198.006805 
	C293.835632,198.016312 293.370880,198.032440 292.928040,198.030334 
	C292.949890,198.012085 292.976166,198.061050 292.919739,197.733856 
	C292.416199,196.944443 291.969116,196.482239 291.289825,195.802216 
	C286.193298,189.289230 281.328949,182.994064 276.366913,176.456940 
	C276.194458,176.057877 276.119751,175.900772 276.045044,175.743683 
	C276.963531,173.729279 277.406891,171.242554 278.870544,169.770035 
	C309.455963,138.999634 340.163605,108.350716 370.820831,77.651543 
	C372.972656,75.496788 374.919952,73.137726 376.980438,70.519615 
z"/>
<path fill="#8EC14D" opacity="1.000000" stroke="none" 
	d="
M275.718933,175.629242 
	C276.119751,175.900772 276.194458,176.057877 276.062134,176.690338 
	C271.047546,183.878891 266.306915,190.641800 261.381226,197.267075 
	C260.276825,198.752533 258.524658,199.756378 257.070709,200.981964 
	C257.053589,191.002197 257.036469,181.022430 257.038635,170.585205 
	C263.902985,169.427261 269.568359,172.741653 275.718933,175.629242 
z"/>
<path fill="#FEAF00" opacity="1.000000" stroke="none" 
	d="
M223.794312,48.968254 
	C211.132507,48.978943 198.470169,48.931255 185.809265,49.043564 
	C182.842606,49.069881 179.880753,49.637703 176.506332,49.988811 
	C176.081406,44.993599 176.066833,39.965973 176.470245,34.390091 
	C179.166641,33.561253 181.443588,33.052032 183.723648,33.037724 
	C197.103104,32.953732 210.483292,32.985298 223.902023,33.356407 
	C223.979050,34.494202 224.017273,35.253494 224.032959,36.449196 
	C224.023880,38.928925 224.037354,40.972248 224.028076,43.440952 
	C223.935013,45.566975 223.864655,47.267612 223.794312,48.968254 
z"/>
<path fill="#FDB800" opacity="1.000000" stroke="none" 
	d="
M223.863220,32.977905 
	C210.483292,32.985298 197.103104,32.953732 183.723648,33.037724 
	C181.443588,33.052032 179.166641,33.561253 176.487732,33.923904 
	C175.777466,30.608145 175.467728,27.210316 175.107239,23.406708 
	C179.977051,22.667313 184.894531,22.115498 189.818878,22.045271 
	C200.232040,21.896763 210.648788,21.999823 221.532898,21.999512 
	C222.001755,21.999329 222.470871,22.010996 222.722931,22.429382 
	C223.015442,24.242052 223.055908,25.636335 223.091980,27.409286 
	C223.346115,29.517937 223.604675,31.247921 223.863220,32.977905 
z"/>
<path fill="#FDC50B" opacity="1.000000" stroke="none" 
	d="
M454.152405,127.948906 
	C451.920502,129.647095 449.459045,131.115021 447.490906,133.077698 
	C413.287109,167.186554 379.147858,201.360123 344.976044,235.501099 
	C343.214539,237.261002 341.287201,238.854950 338.929840,240.603729 
	C331.614410,234.124893 324.806183,227.568527 318.163879,220.723480 
	C318.872498,219.804977 319.377289,219.137207 319.963440,218.550766 
	C349.647858,188.853119 379.336670,159.159821 409.041718,129.482819 
	C409.975098,128.550369 411.084747,127.794380 412.323486,126.990784 
	C412.534729,127.025444 412.953430,127.114807 413.104553,127.434845 
	C415.170776,128.448242 417.085876,129.141602 419.434937,129.904022 
	C421.915314,129.926331 423.961731,129.879578 426.422852,129.902420 
	C435.785736,130.001068 440.026367,125.815430 439.993896,116.955177 
	C439.987854,115.304047 439.890045,113.653252 439.905762,111.572418 
	C439.447510,108.187134 438.918030,105.231735 438.292847,102.073105 
	C438.020477,101.621506 437.903992,101.347519 438.110931,100.835327 
	C446.509552,92.361015 454.655914,84.109978 462.772064,75.829308 
	C464.569366,73.995544 466.259705,72.056961 467.999268,70.166641 
	C475.899323,70.390144 483.578491,71.601837 490.715393,75.867447 
	C486.879395,80.758522 483.008942,84.997620 479.216614,89.305511 
	C476.752899,92.104195 474.403046,95.003136 471.538269,97.909882 
	C467.430847,97.966919 463.706238,97.505768 460.169495,98.122429 
	C457.328308,98.617828 454.092682,99.796753 452.124268,101.764755 
	C447.425507,106.462593 447.627228,119.627365 451.931885,125.381119 
	C452.697754,126.460159 453.425079,127.204529 454.152405,127.948906 
z"/>
<path fill="#FEC70D" opacity="1.000000" stroke="none" 
	d="
M467.535645,70.093887 
	C466.259705,72.056961 464.569366,73.995544 462.772064,75.829308 
	C454.655914,84.109978 446.509552,92.361015 437.798859,100.707146 
	C435.821259,100.178757 434.418915,99.565964 432.756226,98.612099 
	C427.841156,98.190651 423.167084,97.814331 418.537201,98.116203 
	C414.226044,98.397278 409.660339,100.443756 409.370544,104.859138 
	C408.885620,112.247383 406.956421,120.147522 412.112213,126.956131 
	C411.084747,127.794380 409.975098,128.550369 409.041718,129.482819 
	C379.336670,159.159821 349.647858,188.853119 319.963440,218.550766 
	C319.377289,219.137207 318.872498,219.804977 317.876770,220.555084 
	C309.948517,213.121384 302.473267,205.567413 294.998016,198.013458 
	C301.807251,200.827240 304.955933,195.509323 308.727081,191.748367 
	C328.314026,172.214111 347.854492,152.633270 367.432434,133.089905 
	C369.078156,131.447083 370.881073,129.961685 373.124969,128.274918 
	C374.758087,128.706833 375.877136,129.266983 377.408783,129.900330 
	C379.213257,129.927246 380.605133,129.880966 382.409973,129.904816 
	C384.214386,129.928421 385.605865,129.881927 387.401367,129.904755 
	C397.323822,129.230804 401.586029,124.166512 399.907898,113.548729 
	C399.928589,110.738464 399.878296,108.367218 399.816437,105.682098 
	C399.521759,104.616196 399.238647,103.864174 398.955505,103.112167 
	C400.897095,100.648033 402.650635,98.002655 404.816803,95.755013 
	C410.481995,89.876793 416.220459,84.059364 422.146332,78.446404 
	C425.113037,75.636368 428.552643,73.325645 431.888367,70.476929 
	C443.689606,70.116905 455.380829,70.069023 467.535645,70.093887 
z"/>
<path fill="#FDC409" opacity="1.000000" stroke="none" 
	d="
M472.002167,97.857132 
	C474.403046,95.003136 476.752899,92.104195 479.216614,89.305511 
	C483.008942,84.997620 486.879395,80.758522 490.882812,76.190750 
	C495.623474,79.678848 500.197998,83.466423 504.906250,87.564728 
	C504.078461,89.364967 503.328308,91.059151 502.118713,92.308456 
	C496.948303,97.648422 491.690918,102.907326 486.349579,108.076248 
	C485.106079,109.279610 483.408783,110.014053 481.495728,110.601517 
	C480.733673,108.818031 480.396179,107.397270 480.032349,105.626480 
	C479.040710,103.836060 478.075409,102.395676 476.961853,100.640579 
	C475.552704,99.862396 474.291748,99.398918 472.934418,98.695084 
	C472.559418,98.255524 472.280792,98.056328 472.002167,97.857132 
z"/>
<path fill="#F97C13" opacity="1.000000" stroke="none" 
	d="
M223.902023,33.356407 
	C223.604675,31.247921 223.346115,29.517937 223.550446,27.401316 
	C238.954788,27.010914 253.896240,27.007149 268.837708,27.003384 
	C268.882507,29.703882 268.927277,32.404381 268.444733,35.551311 
	C253.296768,36.002758 238.676132,36.007774 224.055481,36.012787 
	C224.017273,35.253494 223.979050,34.494202 223.902023,33.356407 
z"/>
<path fill="#F05B31" opacity="1.000000" stroke="none" 
	d="
M268.900757,60.550209 
	C254.218674,60.999229 239.604599,61.002434 224.528137,61.010536 
	C224.051712,58.316280 224.037659,55.617126 224.510895,52.463058 
	C239.609772,52.003933 254.221359,51.999714 268.832947,51.995495 
	C268.878204,54.698460 268.923462,57.401421 268.900757,60.550209 
z"/>
<path fill="#F36726" opacity="1.000000" stroke="none" 
	d="
M268.900909,51.549736 
	C254.221359,51.999714 239.609772,52.003933 224.537170,52.014675 
	C224.019150,51.256771 223.962128,50.492340 223.849716,49.348083 
	C223.864655,47.267612 223.935013,45.566975 224.491501,43.436359 
	C239.596420,43.003239 254.215179,43.000095 268.833923,42.996952 
	C268.878906,45.699291 268.923889,48.401634 268.900909,51.549736 
z"/>
<path fill="#F7731B" opacity="1.000000" stroke="none" 
	d="
M268.902222,42.563278 
	C254.215179,43.000095 239.596420,43.003239 224.514221,43.010979 
	C224.037354,40.972248 224.023880,38.928925 224.032959,36.449196 
	C238.676132,36.007774 253.296768,36.002758 268.375366,35.996643 
	C268.878998,38.040226 268.924744,40.084915 268.902222,42.563278 
z"/>
<path fill="#FC8709" opacity="1.000000" stroke="none" 
	d="
M268.905273,26.616318 
	C253.896240,27.007149 238.954788,27.010914 223.554855,27.022648 
	C223.055908,25.636335 223.015442,24.242052 222.957550,22.430779 
	C234.891998,22.008692 246.845139,22.093485 258.794769,21.927048 
	C261.363403,21.891272 263.919342,20.947666 266.767029,20.160677 
	C267.692902,22.009153 268.332886,24.119204 268.905273,26.616318 
z"/>
<path fill="#FDA804" opacity="1.000000" stroke="none" 
	d="
M294.649170,198.006821 
	C302.473267,205.567413 309.948517,213.121384 317.710876,220.843750 
	C324.806183,227.568527 331.614410,234.124893 338.709778,240.850586 
	C346.556030,248.819687 354.115082,256.619476 361.843018,264.705292 
	C360.871185,270.883362 359.157959,276.413391 360.357300,282.887909 
	C361.519775,289.163391 359.767426,295.978790 359.019287,302.862091 
	C358.070709,302.386444 357.398071,301.605743 356.515930,300.562897 
	C353.456848,295.645752 350.607239,290.990753 347.508362,286.123474 
	C344.944794,282.125854 342.630432,278.340546 339.999695,273.958191 
	C334.576660,265.375763 329.470001,257.390381 324.242065,249.105164 
	C322.587830,246.249451 321.081879,243.676910 319.517395,241.140457 
	C310.654755,226.771713 301.778076,212.411621 292.906158,198.048584 
	C293.370880,198.032440 293.835632,198.016312 294.649170,198.006821 
z"/>
<path fill="#60CBEE" opacity="1.000000" stroke="none" 
	d="
M477.110077,100.955292 
	C478.075409,102.395676 479.040710,103.836060 479.689270,105.691513 
	C473.251373,114.015877 467.130219,121.925163 461.009064,129.834457 
	C459.878113,129.619370 458.747131,129.404282 457.328552,128.640457 
	C463.730621,119.046249 470.420349,110.000771 477.110077,100.955292 
z"/>
<path fill="#6BD6F2" opacity="1.000000" stroke="none" 
	d="
M476.961853,100.640579 
	C470.420349,110.000771 463.730621,119.046249 457.021790,128.441559 
	C456.248108,128.591125 455.493530,128.390854 454.445648,128.069748 
	C453.425079,127.204529 452.697754,126.460159 452.278381,125.313187 
	C459.401154,116.252205 466.215973,107.593826 473.030792,98.935440 
	C474.291748,99.398918 475.552704,99.862396 476.961853,100.640579 
z"/>
<path fill="#58C2EA" opacity="1.000000" stroke="none" 
	d="
M461.432678,129.905258 
	C467.130219,121.925163 473.251373,114.015877 479.715607,106.041550 
	C480.396179,107.397270 480.733673,108.818031 481.147980,110.620064 
	C481.165436,111.167633 481.106049,111.333939 480.625732,111.818069 
	C475.804230,118.035507 471.403687,123.935120 467.003174,129.834717 
	C465.287537,129.881836 463.571930,129.928940 461.432678,129.905258 
z"/>
<path fill="#4CB6E4" opacity="1.000000" stroke="none" 
	d="
M467.407349,129.904755 
	C471.403687,123.935120 475.804230,118.035507 480.534790,112.066833 
	C481.472260,122.607338 479.869965,125.981445 472.477264,129.073456 
	C471.046631,129.671829 469.373077,129.689316 467.407349,129.904755 
z"/>
<path fill="#AFD73F" opacity="1.000000" stroke="none" 
	d="
M123.003204,362.420654 
	C124.880821,360.652618 126.925034,359.510864 128.519958,357.918945 
	C169.252899,317.263641 209.929062,276.551483 250.669952,235.904190 
	C252.246063,234.331726 254.365036,233.303391 256.608002,232.471466 
	C256.995422,243.281830 257.005890,253.642227 257.006226,264.248291 
	C256.996094,264.493927 256.974304,264.985168 256.974304,264.985168 
	C255.607346,265.865845 254.029037,266.534821 252.904022,267.657867 
	C213.425446,307.066833 173.989029,346.517975 134.553131,385.969696 
	C134.085358,386.437683 133.702621,386.990692 133.106903,387.799255 
	C131.432953,386.539795 129.932312,384.985107 128.182220,383.221863 
	C126.732857,380.540894 125.532928,378.068512 124.160828,375.298645 
	C123.605087,372.607086 123.221519,370.212921 122.755737,367.414948 
	C122.769165,365.619781 122.864815,364.228485 123.003204,362.420654 
z"/>
<path fill="#8FC551" opacity="1.000000" stroke="none" 
	d="
M256.985596,265.455200 
	C256.974304,264.985168 256.996094,264.493927 257.344604,264.184448 
	C260.058594,262.306580 262.424103,260.738190 263.895020,259.762909 
	C265.470886,261.842712 267.357544,264.719482 267.594971,264.589264 
	C272.898499,261.680481 278.174255,261.684418 283.662903,263.887604 
	C284.302826,264.144470 285.472412,263.878387 286.031464,263.414734 
	C290.661194,259.574677 296.473724,261.245239 301.649750,260.267212 
	C310.358826,258.621613 318.017029,255.602112 324.363312,249.404999 
	C329.470001,257.390381 334.576660,265.375763 339.777039,273.687195 
	C338.400665,275.022064 336.650269,275.782501 335.503143,277.077423 
	C321.441315,292.951019 304.344177,304.085663 284.154388,310.582581 
	C282.025391,311.267670 279.677216,312.593506 278.387207,314.331848 
	C273.189392,321.336212 264.748016,321.679260 257.379639,324.983704 
	C257.000580,316.976776 256.998749,308.952362 256.991516,300.457947 
	C256.989746,288.633698 256.993317,277.279480 256.985596,265.455200 
z"/>
<path fill="#94C64C" opacity="1.000000" stroke="none" 
	d="
M324.242065,249.105164 
	C318.017029,255.602112 310.358826,258.621613 301.649750,260.267212 
	C296.473724,261.245239 290.661194,259.574677 286.031464,263.414734 
	C285.472412,263.878387 284.302826,264.144470 283.662903,263.887604 
	C278.174255,261.684418 272.898499,261.680481 267.594971,264.589264 
	C267.357544,264.719482 265.470886,261.842712 263.895020,259.762909 
	C262.424103,260.738190 260.058594,262.306580 257.354736,263.938812 
	C257.005890,253.642227 256.995422,243.281830 256.966461,232.450912 
	C256.972931,221.961151 256.997894,211.941910 257.046753,201.452301 
	C258.524658,199.756378 260.276825,198.752533 261.381226,197.267075 
	C266.306915,190.641800 271.047546,183.878891 276.159851,176.932312 
	C281.328949,182.994064 286.193298,189.289230 291.426697,196.094513 
	C292.189240,197.090103 292.582703,197.575577 292.976166,198.061050 
	C292.976166,198.061050 292.949890,198.012085 292.928040,198.030334 
	C301.778076,212.411621 310.654755,226.771713 319.517395,241.140457 
	C321.081879,243.676910 322.587830,246.249451 324.242065,249.105164 
z"/>
<path fill="#76E1F7" opacity="1.000000" stroke="none" 
	d="
M372.982452,127.027893 
	C371.649170,124.404823 369.594788,121.896858 369.153351,119.131416 
	C368.508179,115.089607 368.877045,110.856133 369.075836,106.716934 
	C369.324799,101.532265 373.871094,98.304413 378.616821,98.063087 
	C382.909698,97.844788 387.228760,98.142014 391.724121,98.916702 
	C390.903625,101.287079 389.987946,103.017769 388.871185,104.607185 
	C383.605103,112.101959 378.283936,119.558022 372.982452,127.027893 
z"/>
<path fill="#6BD6F2" opacity="1.000000" stroke="none" 
	d="
M372.988373,127.243385 
	C378.283936,119.558022 383.605103,112.101959 388.871185,104.607185 
	C389.987946,103.017769 390.903625,101.287079 391.974792,99.267616 
	C393.278290,99.364090 394.519012,99.814430 395.835266,100.928261 
	C393.536377,104.968491 391.089050,108.296730 388.803711,111.732727 
	C384.815338,117.729248 380.926666,123.792084 376.996216,129.827133 
	C375.877136,129.266983 374.758087,128.706833 373.341003,128.016968 
	C373.043030,127.887268 372.994293,127.458878 372.988373,127.243385 
z"/>
<path fill="#60CBEE" opacity="1.000000" stroke="none" 
	d="
M377.408783,129.900330 
	C380.926666,123.792084 384.815338,117.729248 388.803711,111.732727 
	C391.089050,108.296730 393.536377,104.968491 395.979004,101.242340 
	C396.818787,101.538582 397.590393,102.184219 398.658752,102.971008 
	C399.238647,103.864174 399.521759,104.616196 399.505615,105.780167 
	C394.413361,112.221092 389.553040,118.198524 384.872620,124.313637 
	C383.630280,125.936745 382.940491,127.982796 381.997040,129.834686 
	C380.605133,129.880966 379.213257,129.927246 377.408783,129.900330 
z"/>
<path fill="#FDA804" opacity="1.000000" stroke="none" 
	d="
M292.919739,197.733856 
	C292.582703,197.575577 292.189240,197.090103 291.658905,196.312332 
	C291.969116,196.482239 292.416199,196.944443 292.919739,197.733856 
z"/>
<path fill="#76E1F7" opacity="1.000000" stroke="none" 
	d="
M412.323486,126.990791 
	C406.956421,120.147522 408.885620,112.247383 409.370544,104.859138 
	C409.660339,100.443756 414.226044,98.397278 418.537201,98.116203 
	C423.167084,97.814331 427.841156,98.190651 432.695740,98.963562 
	C432.219177,100.960014 431.709290,102.388893 430.839569,103.547729 
	C424.919891,111.435219 418.924408,119.265823 412.953430,127.114807 
	C412.953430,127.114807 412.534729,127.025444 412.323486,126.990791 
z"/>
<path fill="#76E1F7" opacity="1.000000" stroke="none" 
	d="
M472.934418,98.695084 
	C466.215973,107.593826 459.401154,116.252205 452.239868,124.978516 
	C447.627228,119.627365 447.425507,106.462593 452.124268,101.764755 
	C454.092682,99.796753 457.328308,98.617828 460.169495,98.122429 
	C463.706238,97.505768 467.430847,97.966919 471.538269,97.909882 
	C472.280792,98.056328 472.559418,98.255524 472.934418,98.695084 
z"/>
<path fill="#6BD6F2" opacity="1.000000" stroke="none" 
	d="
M413.104553,127.434845 
	C418.924408,119.265823 424.919891,111.435219 430.839569,103.547729 
	C431.709290,102.388893 432.219177,100.960014 432.956055,99.304634 
	C434.418915,99.565964 435.821259,100.178757 437.535706,100.919739 
	C437.903992,101.347519 438.020477,101.621506 438.100159,102.420883 
	C435.440308,106.389191 432.788208,109.743828 430.335236,113.238251 
	C426.486542,118.720917 422.772217,124.297905 419.000977,129.834961 
	C417.085876,129.141602 415.170776,128.448242 413.104553,127.434845 
z"/>
<path fill="#58C2EA" opacity="1.000000" stroke="none" 
	d="
M419.434937,129.904022 
	C422.772217,124.297905 426.486542,118.720917 430.335236,113.238251 
	C432.788208,109.743828 435.440308,106.389191 438.195831,102.624107 
	C438.918030,105.231735 439.447510,108.187134 439.580017,111.645988 
	C434.791412,118.043907 430.399780,123.938370 426.008179,129.832825 
	C423.961731,129.879578 421.915314,129.926331 419.434937,129.904022 
z"/>
<path fill="#4CB6E4" opacity="1.000000" stroke="none" 
	d="
M426.422821,129.902405 
	C430.399780,123.938370 434.791412,118.043907 439.508789,112.075867 
	C439.890045,113.653252 439.987854,115.304047 439.993896,116.955177 
	C440.026367,125.815430 435.785736,130.001068 426.422821,129.902405 
z"/>
<path fill="#58C2EA" opacity="1.000000" stroke="none" 
	d="
M382.409973,129.904800 
	C382.940491,127.982796 383.630280,125.936745 384.872620,124.313637 
	C389.553040,118.198524 394.413361,112.221092 399.517181,106.094048 
	C399.878296,108.367218 399.928589,110.738464 399.579712,113.620842 
	C395.119446,119.366463 391.058411,124.600937 386.997345,129.835419 
	C385.605865,129.881927 384.214386,129.928421 382.409973,129.904800 
z"/>
<path fill="#4CB6E4" opacity="1.000000" stroke="none" 
	d="
M387.401367,129.904755 
	C391.058411,124.600937 395.119446,119.366463 399.508728,114.059868 
	C401.586029,124.166512 397.323822,129.230804 387.401367,129.904755 
z"/>
</svg>